<svg xmlns="http://www.w3.org/2000/svg" viewBox="2.344 2.25 20.31 19.5">
	<path d="M20.313 3.75H4.688C3.393 3.75 2.344 4.757 2.344 6v13.5c0 1.243 1.05 2.25 2.344 2.25h15.625c1.294 0 2.343-1.007 2.343-2.25V6c0-1.243-1.05-2.25-2.343-2.25Z

M6.25 2.25v1.5m12.5-1.5v1.5m3.906 3.75H2.344m12.5 4.688 2.12-1.5h.224v7.874m-9.67-7.175c.212-.343.804-.887 1.849-.887 1.235 0 2.338.646 2.338 1.87.003.237-.044.473-.137.692-.093.22-.232.419-.406.586-.534.525-1.349.725-1.793.725.503 0 1.425.227 2.029.82.386.378.565.911.565 1.503 0 1.307-1.149 2.054-2.545 2.054-1.18 0-1.904-.824-2.143-1.211
" stroke="#4594a6" stroke-width="0.2" fill="none"/>
</svg>